<mxfile host="app.diagrams.net" agent="Mozilla/5.0 (Windows NT 10.0; Win64; x64) AppleWebKit/537.36 (KHTML, like Gecko) Chrome/137.0.0.0 Safari/537.36" version="26.2.14">
  <diagram name="Page-1" id="_DeYYR4Qj9MW9a1taFgx">
    <mxGraphModel dx="928" dy="478" grid="1" gridSize="10" guides="1" tooltips="1" connect="1" arrows="1" fold="1" page="1" pageScale="1" pageWidth="850" pageHeight="1100" math="0" shadow="0">
      <root>
        <mxCell id="0" />
        <mxCell id="1" parent="0" />
        <mxCell id="bdD3YvU62UM6Dhe-RuNt-11" style="edgeStyle=orthogonalEdgeStyle;rounded=0;orthogonalLoop=1;jettySize=auto;html=1;entryX=0.5;entryY=0;entryDx=0;entryDy=0;" parent="1" source="bdD3YvU62UM6Dhe-RuNt-1" target="bdD3YvU62UM6Dhe-RuNt-2" edge="1">
          <mxGeometry relative="1" as="geometry" />
        </mxCell>
        <mxCell id="bdD3YvU62UM6Dhe-RuNt-1" value="1. Receives intrapartum azithromycin?" style="rounded=1;whiteSpace=wrap;html=1;" parent="1" vertex="1">
          <mxGeometry x="120" y="40" width="120" height="60" as="geometry" />
        </mxCell>
        <mxCell id="bdD3YvU62UM6Dhe-RuNt-2" value="&lt;b&gt;I. Record receipt of intrapartum azithromycin&lt;/b&gt;" style="rounded=0;whiteSpace=wrap;html=1;" parent="1" vertex="1">
          <mxGeometry x="120" y="160" width="120" height="60" as="geometry" />
        </mxCell>
        <mxCell id="bdD3YvU62UM6Dhe-RuNt-8" value="Yes" style="edgeStyle=orthogonalEdgeStyle;rounded=0;orthogonalLoop=1;jettySize=auto;html=1;" parent="1" source="bdD3YvU62UM6Dhe-RuNt-5" target="bdD3YvU62UM6Dhe-RuNt-7" edge="1">
          <mxGeometry relative="1" as="geometry" />
        </mxCell>
        <mxCell id="bdD3YvU62UM6Dhe-RuNt-5" value="2. Believed to be preterm?" style="rounded=1;whiteSpace=wrap;html=1;" parent="1" vertex="1">
          <mxGeometry x="360" y="40" width="120" height="60" as="geometry" />
        </mxCell>
        <mxCell id="bdD3YvU62UM6Dhe-RuNt-10" value="Yes" style="edgeStyle=orthogonalEdgeStyle;rounded=0;orthogonalLoop=1;jettySize=auto;html=1;" parent="1" source="bdD3YvU62UM6Dhe-RuNt-7" target="bdD3YvU62UM6Dhe-RuNt-9" edge="1">
          <mxGeometry relative="1" as="geometry" />
        </mxCell>
        <mxCell id="bdD3YvU62UM6Dhe-RuNt-7" value="3. Receives antenatal corticosteroids?" style="rounded=1;whiteSpace=wrap;html=1;" parent="1" vertex="1">
          <mxGeometry x="360" y="150" width="120" height="60" as="geometry" />
        </mxCell>
        <mxCell id="bdD3YvU62UM6Dhe-RuNt-9" value="&lt;b&gt;II. Record receipt of antenatal corticosteroids&lt;/b&gt;" style="rounded=0;whiteSpace=wrap;html=1;" parent="1" vertex="1">
          <mxGeometry x="360" y="260" width="120" height="60" as="geometry" />
        </mxCell>
        <mxCell id="xo20cv1c3Tme7O6Y7rCQ-1" value="Yes" style="edgeStyle=orthogonalEdgeStyle;rounded=0;orthogonalLoop=1;jettySize=auto;html=1;" edge="1" parent="1" source="xo20cv1c3Tme7O6Y7rCQ-2" target="xo20cv1c3Tme7O6Y7rCQ-4">
          <mxGeometry relative="1" as="geometry" />
        </mxCell>
        <mxCell id="xo20cv1c3Tme7O6Y7rCQ-2" value="4. Attends ANC?" style="rounded=1;whiteSpace=wrap;html=1;" vertex="1" parent="1">
          <mxGeometry x="600" y="40" width="120" height="60" as="geometry" />
        </mxCell>
        <mxCell id="xo20cv1c3Tme7O6Y7rCQ-3" value="Yes" style="edgeStyle=orthogonalEdgeStyle;rounded=0;orthogonalLoop=1;jettySize=auto;html=1;" edge="1" parent="1" source="xo20cv1c3Tme7O6Y7rCQ-4" target="xo20cv1c3Tme7O6Y7rCQ-5">
          <mxGeometry relative="1" as="geometry" />
        </mxCell>
        <mxCell id="xo20cv1c3Tme7O6Y7rCQ-4" value="5. Delivers at home?" style="rounded=1;whiteSpace=wrap;html=1;" vertex="1" parent="1">
          <mxGeometry x="600" y="150" width="120" height="60" as="geometry" />
        </mxCell>
        <mxCell id="xo20cv1c3Tme7O6Y7rCQ-5" value="&lt;b&gt;III. Record receipt of misoprostol&lt;/b&gt;" style="rounded=0;whiteSpace=wrap;html=1;" vertex="1" parent="1">
          <mxGeometry x="600" y="260" width="120" height="60" as="geometry" />
        </mxCell>
      </root>
    </mxGraphModel>
  </diagram>
</mxfile>
